<svg width="1200" height="100" xmlns="http://www.w3.org/2000/svg">
    <style>
        .label {
            fill: rgba(162, 119, 255, 0.25);
            stroke: #C4A8FF;
            stroke-width: 2;
        }
        .text {
            fill: #A080E0;
            font-family: 'Fira Code', monospace;
            font-size: 16px;
            text-anchor: middle;
            dominant-baseline: middle;
        }
    </style>
    
    <rect x="20" y="20" width="100" height="40" rx="10" class="label" />
    <text x="70" y="40" class="text">HTML</text>
    
    <rect x="140" y="20" width="100" height="40" rx="10" class="label" />
    <text x="190" y="40" class="text">CSS</text>
    
    <rect x="260" y="20" width="100" height="40" rx="10" class="label" />
    <text x="310" y="40" class="text">JavaScript</text>
    
    <rect x="380" y="20" width="100" height="40" rx="10" class="label" />
    <text x="430" y="40" class="text">PHP</text>
    
    <rect x="500" y="20" width="100" height="40" rx="10" class="label" />
    <text x="550" y="40" class="text">Laravel</text>
    
    <rect x="620" y="20" width="100" height="40" rx="10" class="label" />
    <text x="670" y="40" class="text">PL/SQL</text>
    
    <rect x="740" y="20" width="100" height="40" rx="10" class="label" />
    <text x="790" y="40" class="text">React</text>
    
    <rect x="860" y="20" width="100" height="40" rx="10" class="label" />
    <text x="910" y="40" class="text">Node.js</text>
    
    <rect x="980" y="20" width="100" height="40" rx="10" class="label" />
    <text x="1030" y="40" class="text">TypeScript</text>
</svg>
