<svg width="940" align="center" height="50" xmlns="http://www.w3.org/2000/svg">
    <style>
        .label {
            fill: rgba(162, 119, 255, 0.25);
            stroke: #C4A8FF;
            stroke-width: 2;
        }
        .text {
            fill: #A080E0;
            font-family: 'Fira Code', monospace;
            font-size: 10px;
            text-anchor: middle;
            dominant-baseline: middle;
        }
    </style>
    
    <rect x="20" y="10" width="80" height="20" rx="10" class="label" />
    <text x="60" y="20" class="text">HTML</text>
    
    <rect x="120" y="10" width="80" height="20" rx="10" class="label" />
    <text x="160" y="20" class="text">CSS</text>
    
    <rect x="220" y="10" width="100" height="20" rx="10" class="label" />
    <text x="270" y="20" class="text">JavaScript</text>
    
    <rect x="340" y="10" width="60" height="20" rx="10" class="label" />
    <text x="370" y="20" class="text">PHP</text>
    
    <rect x="420" y="10" width="80" height="20" rx="10" class="label" />
    <text x="460" y="20" class="text">Laravel</text>
    
    <rect x="520" y="10" width="80" height="20" rx="10" class="label" />
    <text x="560" y="20" class="text">PL/SQL</text>
    
    <rect x="620" y="10" width="80" height="20" rx="10" class="label" />
    <text x="660" y="20" class="text">React</text>
    
    <rect x="720" y="10" width="80" height="20" rx="10" class="label" />
    <text x="760" y="20" class="text">Node.js</text>
    
    <rect x="820" y="10" width="100" height="20" rx="10" class="label" />
    <text x="870" y="20" class="text">TypeScript</text>
</svg>
